<svg width="31" height="36" viewBox="0 0 31 36" fill="none" xmlns="http://www.w3.org/2000/svg">
<path d="M23.6217 15.828C23.1886 16.3364 22.8569 16.95 22.6503 17.6249C22.4437 18.3 22.3672 19.0199 22.4263 19.7333L22.4057 19.7093C22.4665 20.5492 22.3694 21.3943 22.1213 22.1859C21.8731 22.9773 21.48 23.6961 20.9693 24.2921C20.4584 24.888 19.8423 25.3468 19.1638 25.6361C18.4854 25.9256 17.7609 26.0389 17.0411 25.968L17.0617 25.992C16.2007 25.8985 15.3359 26.1171 14.5851 26.618C13.8345 27.1189 13.2345 27.8777 12.8671 28.7911C12.4997 29.7044 12.3825 30.7276 12.5318 31.7215C12.6811 32.7152 13.0895 33.6311 13.7013 34.3441C14.313 35.0572 15.0984 35.5328 15.9503 35.706C16.8023 35.8793 17.6792 35.7417 18.4617 35.3123C19.2442 34.8827 19.8941 34.1821 20.3227 33.3059C20.7514 32.4296 20.9381 31.4205 20.8571 30.416L20.8789 30.44C20.8181 29.6003 20.9151 28.7551 21.1632 27.9635C21.4113 27.172 21.8046 26.4532 22.3153 25.8572C22.8262 25.2613 23.4423 24.8025 24.1207 24.5132C24.7992 24.2237 25.5235 24.1104 26.2434 24.1813L26.2217 24.1573C26.925 24.2311 27.633 24.0965 28.28 23.7661C28.9269 23.4357 29.4919 22.9201 29.9225 22.2672C30.3531 21.6143 30.6357 20.8449 30.7435 20.0308C30.8515 19.2165 30.7816 18.3837 30.5402 17.6093C30.2989 16.8351 29.8938 16.1444 29.3627 15.6013C28.8317 15.0583 28.1917 14.6804 27.5021 14.5028C26.8125 14.3252 26.0955 14.3535 25.4178 14.5851C24.7401 14.8168 24.1235 15.2443 23.6251 15.828H23.6217Z" fill="#B419B7"/>
<path d="M15.1909 22.848L15.1692 22.824C15.7809 22.8959 16.3988 22.8083 16.9781 22.5675C17.5573 22.3267 18.0834 21.9388 18.5184 21.4317C18.9533 20.9247 19.2863 20.3111 19.493 19.6355C19.6999 18.9599 19.7754 18.2392 19.7143 17.5253L19.736 17.5493C19.6752 16.7095 19.7724 15.8644 20.0204 15.0728C20.2685 14.2813 20.6617 13.5625 21.1725 12.9665C21.6833 12.3707 22.2994 11.9119 22.9778 11.6225C23.6564 11.333 24.3807 11.2198 25.1006 11.2907L25.0789 11.2667C25.94 11.3611 26.8051 11.1431 27.5561 10.6428C28.3073 10.1425 28.9078 9.38396 29.2758 8.4708C29.6438 7.55765 29.7614 6.53428 29.6126 5.54027C29.4638 4.54625 29.0558 3.63001 28.4441 2.91649C27.8326 2.20299 27.0472 1.72693 26.1952 1.55331C25.3432 1.37967 24.4661 1.51688 23.6833 1.94624C22.9006 2.37559 22.2505 3.07619 21.8216 3.95247C21.3927 4.82873 21.206 5.83803 21.2869 6.84267L21.2663 6.81733C21.3272 7.65719 21.2303 8.50244 20.9823 9.29407C20.7343 10.0857 20.341 10.8046 19.8303 11.4007C19.3194 11.9965 18.7032 12.4553 18.0247 12.7447C17.3461 13.034 16.6216 13.1471 15.9017 13.076L15.9223 13.1013C15.3105 13.0295 14.6926 13.1171 14.1134 13.3579C13.5342 13.5985 13.008 13.9865 12.573 14.4936C12.1381 15.0007 11.8052 15.6143 11.5983 16.2899C11.3916 16.9655 11.316 17.6861 11.3772 18.4L11.3566 18.376C11.4172 19.2157 11.3199 20.0608 11.0718 20.8523C10.8236 21.6436 10.4304 22.3624 9.91968 22.9583C9.40889 23.5541 8.79284 24.0128 8.11449 24.3024C7.43613 24.5919 6.7118 24.7053 5.99202 24.6347L6.01259 24.6587C5.15147 24.5643 4.28636 24.7821 3.53527 25.2825C2.78418 25.7829 2.18367 26.5413 1.81565 27.4545C1.44763 28.3677 1.33001 29.3911 1.47884 30.3851C1.62768 31.3791 2.03572 32.2953 2.6473 33.0088C3.25889 33.7224 4.04424 34.1984 4.89625 34.372C5.74826 34.5456 6.62544 34.4084 7.40815 33.9791C8.19084 33.5497 8.84098 32.8492 9.26985 31.9729C9.69876 31.0965 9.88551 30.0873 9.80459 29.0827L9.82631 29.1067C9.76551 28.2668 9.86265 27.4217 10.1108 26.6301C10.3588 25.8387 10.752 25.1199 11.2628 24.5239C11.7736 23.928 12.3897 23.4692 13.0681 23.1799C13.7466 22.8904 14.471 22.7771 15.1909 22.848Z" fill="#006B6A"/>
<path d="M7.53138 20.172C7.96455 19.6637 8.29618 19.0501 8.50263 18.3751C8.70908 17.7 8.78523 16.98 8.72567 16.2667L8.74737 16.2907C8.68657 15.4507 8.78367 14.6052 9.03191 13.8135C9.28015 13.0217 9.67356 12.3028 10.1846 11.7068C10.6957 11.1108 11.3121 10.6522 11.9908 10.3629C12.6696 10.0736 13.3942 9.9607 14.1142 10.032L14.0925 10.008C14.9533 10.1021 15.8181 9.88411 16.5689 9.38379C17.3196 8.88349 17.9197 8.12518 18.2876 7.21231C18.6554 6.29943 18.7729 5.27643 18.6241 4.28279C18.4753 3.28915 18.0673 2.37326 17.456 1.66001C16.8446 0.946752 16.0595 0.470859 15.2078 0.297232C14.3562 0.123592 13.4793 0.260685 12.6969 0.689779C11.9144 1.11887 11.2644 1.8191 10.8356 2.69497C10.4067 3.57083 10.2198 4.57971 10.3005 5.58401L10.28 5.56001C10.3408 6.39981 10.2436 7.24497 9.9955 8.03649C9.74738 8.82801 9.35426 9.54682 8.84345 10.1428C8.33265 10.7387 7.71651 11.1974 7.03807 11.4868C6.35962 11.7763 5.63521 11.8896 4.91538 11.8187L4.93595 11.8427C4.23261 11.7691 3.52471 11.9039 2.87787 12.2344C2.23104 12.5649 1.66618 13.0807 1.23566 13.7337C0.805131 14.3867 0.522868 15.156 0.415005 15.9701C0.307154 16.7844 0.3772 17.6172 0.618651 18.3913C0.860102 19.1656 1.26517 19.8561 1.79629 20.3991C2.32741 20.9421 2.96741 21.3199 3.65698 21.4975C4.34655 21.6749 5.06338 21.6465 5.74106 21.4149C6.41873 21.1832 7.0353 20.7557 7.53366 20.172H7.53138Z" fill="#B419B7"/>
</svg>
